<svg xmlns="http://www.w3.org/2000/svg" viewBox="0 0 249.44 73.17"><defs><style>.cls-1,.cls-2{fill:#2976b5;}.cls-1{fill-rule:evenodd;}</style></defs><g id="Layer_2" data-name="Layer 2"><g id="Capa_1" data-name="Capa 1"><path class="cls-1" d="M239.41,32.8A97.88,97.88,0,0,0,239,45.51a14.44,14.44,0,0,0,.71-1.28,8.36,8.36,0,0,1,.53-1q.24-.54.63-.54c.25,0,.41.15.47.45a1.07,1.07,0,0,1-.07.62A22.94,22.94,0,0,0,240,52.1c0,.78-.12,1.18-.42,1.18a4.52,4.52,0,0,1-1.76-.94,3.24,3.24,0,0,1-1-.89,3.46,3.46,0,0,1-.28-1.31,73.43,73.43,0,0,1-.09-12.54,53.88,53.88,0,0,1-3.89,9.27,27.13,27.13,0,0,1-3.48,5.64,2.29,2.29,0,0,1-1.39.86,3.3,3.3,0,0,1-1.55-.86,4,4,0,0,1-1.88-2.61,5,5,0,0,1-.11-.74c0-.26-.05-.51-.07-.77-.42.78-.87,1.65-1.36,2.6-.1.26-.34.91-.72,2-.16.49-.42.74-.8.74a4.31,4.31,0,0,1-2-.82.77.77,0,0,1-.3-1q3-10.06,2.65-15c-.07-1-.26-1.42-.59-1.42s-.65.27-1.28.79a22.38,22.38,0,0,0-4,5.13,36.12,36.12,0,0,0-4.46,9.89c-.24,1-.52,1.44-.83,1.44a4.71,4.71,0,0,1-1.79-1,1.76,1.76,0,0,1-.62-1.63,110.48,110.48,0,0,1,4.36-25.26q2.46-7.81,4.91-10.2a1.87,1.87,0,0,1,1.29-.61,3.78,3.78,0,0,1,1.85.75l2.72,1.91a.73.73,0,0,1,.38.51q.06.42-.51.42a1.35,1.35,0,0,1-.55-.14,5,5,0,0,0-1.77-.54c-1,0-2,.94-3,2.84q-5.31,10-6.45,26.22A34,34,0,0,1,219,34.35c.67-.62,1.17-.93,1.52-.93a7.07,7.07,0,0,1,1.32.65,11.1,11.1,0,0,1,1.57.65,2.65,2.65,0,0,1,.88,1.86,6.81,6.81,0,0,1,.05.82,41.16,41.16,0,0,1-1.29,10q.38-.55,1-1.41a33.42,33.42,0,0,1,1.14-7.09,31.57,31.57,0,0,1,4.26-9.84c.59-.87,1.19-1.29,1.81-1.27s1.93,1,4,2.81a1,1,0,0,1,.32.51c.07.31-.07.48-.42.48a.94.94,0,0,1-.39-.1q-2-.89-2.82.06c-1.25,1.36-2.45,3.78-3.6,7.22a27.34,27.34,0,0,0-1.65,10.68,2.28,2.28,0,0,0,.06.39c.1.49.33.75.66.75.56,0,1.12-.47,1.7-1.4a58.19,58.19,0,0,0,4.21-8.14,33.87,33.87,0,0,0,2.52-7.66c.17-1.27.27-2.16.29-2.66,0-.9.17-1.34.41-1.34a6.07,6.07,0,0,1,2,1.21,2,2,0,0,1,.81.93,3,3,0,0,1,0,1.24ZM119.88,14.1a.69.69,0,0,1,.2.41c0,.4-.2.6-.7.6a2.56,2.56,0,0,1-.44-.06,2.59,2.59,0,0,0-.47-.06c-.74,0-1.4.91-2,2.73q-3.57,11.22-3.42,27.93c.29-.85.66-2,1.13-3.41.13-.44.32-.65.58-.65a.32.32,0,0,1,.14,0c.17-.87.37-1.76.61-2.68a31.57,31.57,0,0,1,4.26-9.84c.59-.87,1.2-1.29,1.81-1.27s1.94,1,4,2.81a1.09,1.09,0,0,1,.33.51c.06.31-.08.48-.43.48a1,1,0,0,1-.39-.1c-1.29-.59-2.24-.57-2.81.06-1.26,1.36-2.46,3.78-3.61,7.22A27.53,27.53,0,0,0,117,49.48c0,.14,0,.27.06.39.11.49.33.75.66.75.56,0,1.13-.47,1.7-1.4a58.19,58.19,0,0,0,4.21-8.14,34.55,34.55,0,0,0,2.53-7.66c.16-1.27.26-2.16.29-2.66,0-.9.16-1.34.4-1.34a6.07,6.07,0,0,1,2,1.21,2.15,2.15,0,0,1,.82.93,3.25,3.25,0,0,1,0,1.24,97.88,97.88,0,0,0-.42,12.71,12.24,12.24,0,0,0,.71-1.28,7.76,7.76,0,0,1,.54-1c.15-.36.36-.54.62-.54s.41.15.47.45a1.15,1.15,0,0,1-.06.62,23,23,0,0,0-1.31,8.35c0,.78-.12,1.18-.42,1.18a4.44,4.44,0,0,1-1.75-.94,3.19,3.19,0,0,1-1-.89,3.67,3.67,0,0,1-.28-1.31,74.48,74.48,0,0,1-.09-12.54,53.88,53.88,0,0,1-3.89,9.27,27.69,27.69,0,0,1-3.47,5.64,2.31,2.31,0,0,1-1.4.86,3.35,3.35,0,0,1-1.55-.86,4,4,0,0,1-1.88-2.61,6.87,6.87,0,0,1-.11-.74c0-.32-.06-.65-.08-1-.12,1.17-.22,2.45-.3,3.85-.07.85-.34,1.28-.81,1.28a5.2,5.2,0,0,1-2.57-1.54,3.7,3.7,0,0,1-1-1.18,5.19,5.19,0,0,1-.13-1.73c.16-4.29.45-9.14.85-14.52.47-6.15.89-9.79,1.26-10.89a98.83,98.83,0,0,0-5.1,10.8q-2.9,7-5,13.34a11.88,11.88,0,0,1,.73,2.75,4.6,4.6,0,0,1-1.28,3c-.48.64-.81.95-1,.95s-.71-.79-1.61-2.37a4.31,4.31,0,0,1-.65-1.61,7.5,7.5,0,0,1,.5-2,125,125,0,0,0-7.1-17.21q-1.81,8.07-3.82,14.72c1.29,1.6,2,2.69,2,3.23s-.33.72-1.11.83a5.2,5.2,0,0,0-3.86,3.22c0,.6-.25.92-.63.92-.53,0-1.42-.61-2.64-1.81a1.77,1.77,0,0,1-.61-.93,1.25,1.25,0,0,1,.35-.8,26.58,26.58,0,0,1,3.31-3.32,106.74,106.74,0,0,0,5.38-19.29c-1.37-3-2.84-6.13-5.3-7.83a2.53,2.53,0,0,0-1.4-.53,2.37,2.37,0,0,0-1.78,1.15c-.54.83-1.08,1.67-1.61,2.53-.31.49-.64.74-1,.74s-.44-.18-.47-.53a1.65,1.65,0,0,1,.08-.63c1.63-5.36,3.42-8,5.37-7.89,2.67.11,5.58,5.06,7,7.46a20.16,20.16,0,0,0,.7-7c-.09-1.06,0-1.6.23-1.6s.84.43,1.78,1.28a2.45,2.45,0,0,1,.5,1.6q.11,1.55-1.36,9a159.76,159.76,0,0,1,8,18.52q6.72-17.4,12.49-27.17a33.28,33.28,0,0,1,1.6-4.69c.28-.67.67-1,1.16-1q1.11,0,4.19,2.85Zm25.87,16.15a2,2,0,0,0-.57-1.43,3.46,3.46,0,0,0-1.35-.39,2.43,2.43,0,0,0-1.28-.7c-.33,0-.73.43-1.19,1.3a80.05,80.05,0,0,0-6.12,15.88c.17-1.91.58-4.57,1.21-7.95a34.33,34.33,0,0,1,1.47-6.09.85.85,0,0,0-.37-1.28,5.58,5.58,0,0,0-1.9-.83c-.41,0-.78.43-1.11,1.31-1.12,2.4-2,4.17-2.72,5.35a1,1,0,0,0-.15.58.43.43,0,0,0,.47.45.52.52,0,0,0,.5-.36,29.45,29.45,0,0,1,2-3.17,142.35,142.35,0,0,0-2.53,17.33,1.87,1.87,0,0,0,.76,2,11.74,11.74,0,0,0,2.06,1c.38,0,.74-1,1.08-3.17a55.7,55.7,0,0,1,6-18c.37-.72.67-1.07.86-1.07s.21.19.25.56a18,18,0,0,1-.27,4.34,1.71,1.71,0,0,0,.47,1.69c.86.79,1.42,1.19,1.64,1.19s.54-.36.64-1.07a30.46,30.46,0,0,0,.16-7.42Zm14.61,2.55a97.88,97.88,0,0,0-.42,12.71c.18-.29.42-.71.71-1.28a8.36,8.36,0,0,1,.53-1c.15-.36.37-.54.63-.54s.41.15.47.45a1.07,1.07,0,0,1-.07.62,23.16,23.16,0,0,0-1.31,8.35c0,.78-.11,1.18-.41,1.18a4.52,4.52,0,0,1-1.76-.94,3.11,3.11,0,0,1-1-.89,3.46,3.46,0,0,1-.28-1.31,74.62,74.62,0,0,1-.1-12.54,53.76,53.76,0,0,1-3.88,9.27A27.58,27.58,0,0,1,150,52.51a2.28,2.28,0,0,1-1.4.86,3.33,3.33,0,0,1-1.54-.86,4,4,0,0,1-1.89-2.61,7,7,0,0,1-.1-.74,28.09,28.09,0,0,1,1-10.23,31.11,31.11,0,0,1,4.26-9.84c.59-.87,1.19-1.29,1.8-1.27s1.94,1,4,2.81a1,1,0,0,1,.33.51c.07.31-.07.48-.42.48a.94.94,0,0,1-.39-.1q-2-.89-2.82.06c-1.25,1.36-2.46,3.78-3.6,7.22a27.34,27.34,0,0,0-1.65,10.68c0,.14,0,.27,0,.39.11.49.33.75.66.75.56,0,1.13-.47,1.71-1.4a57.19,57.19,0,0,0,4.2-8.14,34.55,34.55,0,0,0,2.53-7.66c.17-1.27.27-2.16.29-2.66,0-.9.16-1.34.41-1.34a6.18,6.18,0,0,1,2,1.21,2.08,2.08,0,0,1,.82.93,3,3,0,0,1,.05,1.24ZM181.09,42a1.38,1.38,0,0,0,0-.35c-.08-.38-.25-.57-.49-.57s-.25.1-.34.29c-.49,1.18-.9,2.12-1.22,2.86.08-1.41.07-3.37,0-5.91a42.72,42.72,0,0,0-.59-6.67,3.84,3.84,0,0,0-2.65-2.86,2.66,2.66,0,0,0-1.18-.65,2.24,2.24,0,0,0-1,.42c-.9.57-2.07,2.44-3.51,5.59a43.51,43.51,0,0,0-3,8.56,64.83,64.83,0,0,0,.27-11.78c-.12-1-.91-1.73-2.36-2.2-.44-.69-.86-1-1.26-1s-.48.18-.66.51c-.8,1.62-1.45,3-1.93,4.06a.73.73,0,0,0-.13.54.4.4,0,0,0,.42.33.54.54,0,0,0,.44-.27c.6-.85,1.08-1.55,1.41-2.07a7.67,7.67,0,0,1,.52-.81c.06,0,.16.36.28,1.07a56.56,56.56,0,0,1,.39,9.77,71.92,71.92,0,0,1-.8,9.55,4.87,4.87,0,0,0-.1.83c.05.17.26.33.64.51a5.19,5.19,0,0,0,2,.74c.51,0,.85-.51,1-1.51q1.93-12.24,6.61-19.54c.33-.49.6-.74.81-.74s.56.44.78,1.31a36.63,36.63,0,0,1,.85,9.38,51.76,51.76,0,0,1-.79,9.76,2.82,2.82,0,0,0-.12.92c.07.33.46.64,1.17,1a4.09,4.09,0,0,0,1.42.44c.38,0,.62-.3.71-.92.09-.89.19-1.78.3-2.68q1.28-5.11,2.19-7.83Zm15.26-9.2a97.88,97.88,0,0,0-.42,12.71c.18-.29.42-.71.7-1.28a9.4,9.4,0,0,1,.54-1c.15-.36.37-.54.63-.54s.4.15.47.45a1.17,1.17,0,0,1-.07.62,23.16,23.16,0,0,0-1.31,8.35c0,.78-.12,1.18-.41,1.18a4.52,4.52,0,0,1-1.76-.94,3,3,0,0,1-1-.89,3.27,3.27,0,0,1-.28-1.31,74.62,74.62,0,0,1-.1-12.54,54.57,54.57,0,0,1-3.88,9.27A28,28,0,0,1,186,52.51a2.28,2.28,0,0,1-1.4.86,3.39,3.39,0,0,1-1.55-.86,4,4,0,0,1-1.88-2.61c0-.22-.08-.47-.11-.74a28.54,28.54,0,0,1,1-10.23,31.57,31.57,0,0,1,4.26-9.84c.6-.87,1.2-1.29,1.81-1.27s1.94,1,4,2.81a1,1,0,0,1,.33.51c.07.31-.08.48-.42.48a1,1,0,0,1-.4-.1c-1.29-.59-2.24-.57-2.81.06-1.26,1.36-2.46,3.78-3.6,7.22a27.36,27.36,0,0,0-1.66,10.68q0,.21.06.39c.11.49.33.75.66.75.56,0,1.13-.47,1.71-1.4a57.19,57.19,0,0,0,4.2-8.14,34.55,34.55,0,0,0,2.53-7.66c.17-1.27.26-2.16.29-2.66,0-.9.16-1.34.41-1.34a6.18,6.18,0,0,1,2,1.21,2.08,2.08,0,0,1,.82.93,3.4,3.4,0,0,1,0,1.24Zm12.48-18.11A6.42,6.42,0,0,0,206,13.51c-.66,0-1.22.55-1.7,1.66Q203,18.08,201.33,27.9a5.88,5.88,0,0,1-1.49.89c-.87.34-1.46.56-1.78.66s-.46.37-.42.83.23.65.55.71c.72.14,1.53.27,2.42.41a168,168,0,0,0-1.77,18.85,2.47,2.47,0,0,0,0,.48,2,2,0,0,0,1.58,1.78,3.58,3.58,0,0,0,1.79,1c.36,0,.78-.31,1.27-.92a40.31,40.31,0,0,0,3.42-5.4,1.09,1.09,0,0,0,.14-.83.42.42,0,0,0-.43-.33,1,1,0,0,0-.72.47c-2,2.6-3.21,3.89-3.66,3.89-.28,0-.46-.33-.52-1a6.56,6.56,0,0,1,0-.68,93.43,93.43,0,0,1,1.9-17.63c3.27-.29,5.09-.48,5.43-.54a.66.66,0,0,0,.56-.8c-.06-.64-.37-.92-.92-.86a19.33,19.33,0,0,1-3.91.12c-.38,0-.61-.1-.66-.24a1.65,1.65,0,0,1,.07-.77c.93-4.91,1.71-8.1,2.37-9.56q1.09-2.46,2-2.46a1.61,1.61,0,0,1,.31,0,1.69,1.69,0,0,0,.32,0c.31,0,.45-.12.43-.38A1.41,1.41,0,0,0,208.83,14.69Z"/><path class="cls-2" d="M73.84.56h.56v5.7h-.56Z"/><path class="cls-2" d="M82.41,1.51,82,1.93a3.38,3.38,0,0,0-1-.71A2.85,2.85,0,0,0,79.82,1a2.65,2.65,0,0,0-1.28.33,2.44,2.44,0,0,0-.94.89,2.35,2.35,0,0,0-.33,1.19,2.38,2.38,0,0,0,.34,1.23,2.48,2.48,0,0,0,1,.91,2.73,2.73,0,0,0,1.33.33,2.24,2.24,0,0,0,1.49-.5,1.92,1.92,0,0,0,.72-1.28H80.29V3.53h2.46A2.88,2.88,0,0,1,82,5.63a2.86,2.86,0,0,1-2.08.77,3.16,3.16,0,0,1-2.51-1.07,2.91,2.91,0,0,1-.71-1.92,3,3,0,0,1,.41-1.51A2.84,2.84,0,0,1,78.19.81,3.21,3.21,0,0,1,79.8.41a3.71,3.71,0,0,1,1.37.26A4.25,4.25,0,0,1,82.41,1.51Z"/><path class="cls-2" d="M85,.56h.57V5.71H87.8v.55H85Z"/><path class="cls-2" d="M89.91.56h3.27v.55h-2.7V2.9h2.67v.56H90.48V5.7h2.67v.56H89.91Z"/><path class="cls-2" d="M94.77,5.2l.49-.29c.34.62.73.94,1.18.94A1.14,1.14,0,0,0,97,5.71a.86.86,0,0,0,.38-.35.91.91,0,0,0,.13-.48,1,1,0,0,0-.19-.56,4.46,4.46,0,0,0-1-.92,5.47,5.47,0,0,1-.89-.78,1.43,1.43,0,0,1-.3-.87,1.33,1.33,0,0,1,.18-.68,1.36,1.36,0,0,1,.5-.48,1.44,1.44,0,0,1,.71-.18,1.5,1.5,0,0,1,.75.2,2.56,2.56,0,0,1,.74.74l-.46.35A2.41,2.41,0,0,0,97,1.14,1,1,0,0,0,96.51,1a.79.79,0,0,0-.57.21.67.67,0,0,0-.22.52.94.94,0,0,0,.08.36,1.58,1.58,0,0,0,.28.38c.08.07.32.26.74.57a4.1,4.1,0,0,1,1,1,1.52,1.52,0,0,1,.28.86A1.49,1.49,0,0,1,97.64,6a1.62,1.62,0,0,1-1.15.45,1.72,1.72,0,0,1-.94-.27A2.67,2.67,0,0,1,94.77,5.2Z"/><path class="cls-2" d="M100.43.56H101v5.7h-.57Z"/><path class="cls-2" d="M105.84.56l2.66,5.7h-.61L107,4.38h-2.46l-.89,1.88H103L105.7.56Zm-.07,1.21-1,2.06h1.95Z"/><path class="cls-2" d="M119.3,1.61l-.45.35a2.56,2.56,0,0,0-.9-.74A2.72,2.72,0,0,0,116.81,1a2.53,2.53,0,0,0-1.27.33,2.31,2.31,0,0,0-.9.88,2.49,2.49,0,0,0-.32,1.24A2.35,2.35,0,0,0,115,5.17a2.47,2.47,0,0,0,1.8.69,2.56,2.56,0,0,0,2-.93l.45.34a3,3,0,0,1-1.07.84,3.43,3.43,0,0,1-1.42.29,3,3,0,0,1-2.37-1,3,3,0,0,1-.72-2,2.8,2.8,0,0,1,.88-2.1,3,3,0,0,1,2.2-.86,3.24,3.24,0,0,1,1.44.32A2.83,2.83,0,0,1,119.3,1.61Z"/><path class="cls-2" d="M121.67.56h1.14a7.16,7.16,0,0,1,1.28.07,1.51,1.51,0,0,1,.83.5,1.45,1.45,0,0,1,.32.94,1.57,1.57,0,0,1-.22.82,1.39,1.39,0,0,1-.63.54,2.81,2.81,0,0,1-1.12.18l2,2.65h-.71l-2-2.65h-.32V6.26h-.57Zm.57.55V3.05h1a2.56,2.56,0,0,0,.85-.11.89.89,0,0,0,.42-.34.93.93,0,0,0,.16-.54.89.89,0,0,0-.16-.52.85.85,0,0,0-.41-.34,2.59,2.59,0,0,0-.83-.1Z"/><path class="cls-2" d="M127.58.56h.57v5.7h-.57Z"/><path class="cls-2" d="M130.06,5.2l.49-.29c.34.62.73.94,1.18.94a1.14,1.14,0,0,0,.54-.14.81.81,0,0,0,.38-.35.92.92,0,0,0,.14-.48,1,1,0,0,0-.2-.56,4.46,4.46,0,0,0-1-.92,4.85,4.85,0,0,1-.88-.78,1.38,1.38,0,0,1-.31-.87,1.33,1.33,0,0,1,.18-.68,1.36,1.36,0,0,1,.5-.48,1.44,1.44,0,0,1,.71-.18,1.5,1.5,0,0,1,.75.2,2.58,2.58,0,0,1,.75.74l-.47.35a2.23,2.23,0,0,0-.55-.56A.93.93,0,0,0,131.8,1a.8.8,0,0,0-.57.21.71.71,0,0,0-.22.52.94.94,0,0,0,.08.36,1.58,1.58,0,0,0,.28.38c.08.07.32.26.74.57a4.37,4.37,0,0,1,1,1,1.58,1.58,0,0,1,.27.86A1.45,1.45,0,0,1,132.93,6a1.59,1.59,0,0,1-1.14.45,1.73,1.73,0,0,1-.95-.27A2.67,2.67,0,0,1,130.06,5.2Z"/><path class="cls-2" d="M135.24,1.11V.56h3.13v.55h-1.28V6.26h-.58V1.11Z"/><path class="cls-2" d="M140.31.56h.57v5.7h-.57Z"/><path class="cls-2" d="M145.71.56l2.66,5.7h-.61l-.9-1.88H144.4l-.89,1.88h-.63l2.69-5.7Zm-.07,1.21-1,2.06h2Z"/><path class="cls-2" d="M150.46,6.26V.56h.12l3.8,4.37V.56h.56v5.7h-.12l-3.77-4.32V6.26Z"/><path class="cls-2" d="M159.86.56l2.66,5.7h-.61L161,4.38h-2.46l-.89,1.88H157l2.69-5.7Zm-.07,1.21-1,2.06h1.95Z"/><path class="cls-2" d="M168,6.26V.56h1.19a5.92,5.92,0,0,1,1.85.2,2.43,2.43,0,0,1,1.3,1,3.09,3.09,0,0,1,.47,1.71A3.1,3.1,0,0,1,172.44,5a2.46,2.46,0,0,1-1,1,3.61,3.61,0,0,1-1.66.31Zm.55-.54h.66a6.05,6.05,0,0,0,1.64-.15,1.87,1.87,0,0,0,1-.75,2.29,2.29,0,0,0,.37-1.33,2.41,2.41,0,0,0-.4-1.41,2,2,0,0,0-1.11-.8A6.65,6.65,0,0,0,169,1.11h-.4Z"/><path class="cls-2" d="M175.12.56h3.27v.55h-2.7V2.9h2.67v.56h-2.67V5.7h2.67v.56h-3.24Z"/><path class="cls-2" d="M186.3.56,189,6.26h-.62l-.9-1.88H185l-.89,1.88h-.64l2.7-5.7Zm-.07,1.21-1,2.06h1.95Z"/><path class="cls-2" d="M190.61.56h.62L193.12,5,195,.56h.62l-2.48,5.7h-.13Z"/><path class="cls-2" d="M197.74.56h.57v5.7h-.57Z"/><path class="cls-2" d="M200.38.56H201L202.89,5l1.92-4.4h.62L203,6.26h-.13Z"/><path class="cls-2" d="M209.92.56l2.66,5.7H212l-.9-1.88h-2.45l-.89,1.88h-.64l2.7-5.7Zm-.07,1.21-1,2.06h1.95Z"/><path class="cls-2" d="M214.4,6.26l.82-5.7h.09l2.32,4.68,2.3-4.68H220l.82,5.7h-.56l-.56-4.08-2,4.08h-.15l-2-4.11L215,6.26Z"/><path class="cls-2" d="M223.08.56h.57v5.7h-.57Z"/><path class="cls-2" d="M226.16.56h3.27v.55h-2.7V2.9h2.67v.56h-2.67V5.7h2.67v.56h-3.24Z"/><path class="cls-2" d="M231.61,6.26V.56h.13l3.79,4.37V.56h.57v5.7H236L232.2,1.94V6.26Z"/><path class="cls-2" d="M238.12,1.11V.56h3.12v.55H240V6.26h-.58V1.11Z"/><path class="cls-2" d="M246,.41a2.94,2.94,0,0,1,2.17.87A2.87,2.87,0,0,1,249,3.41a2.89,2.89,0,0,1-.87,2.12,3,3,0,0,1-4.26,0,2.82,2.82,0,0,1-.88-2.1,3.08,3.08,0,0,1,.4-1.52A2.88,2.88,0,0,1,244.5.81,2.84,2.84,0,0,1,246,.41ZM246,1a2.31,2.31,0,0,0-1.2.33,2.31,2.31,0,0,0-.89.89,2.46,2.46,0,0,0-.32,1.24,2.34,2.34,0,0,0,.71,1.72,2.3,2.3,0,0,0,1.7.7,2.51,2.51,0,0,0,1.23-.32,2.4,2.4,0,0,0,.88-.88,2.52,2.52,0,0,0,.31-1.25,2.38,2.38,0,0,0-.31-1.22,2.35,2.35,0,0,0-.89-.88A2.43,2.43,0,0,0,246,1Z"/><path class="cls-2" d="M112.36,67.49a1.72,1.72,0,0,0-.85-.23,1.69,1.69,0,0,0-.84.23,1.65,1.65,0,0,0-.61.62,1.71,1.71,0,0,0-.23.87,1.69,1.69,0,0,0,1.68,1.68,1.66,1.66,0,0,0,.85-.22,1.68,1.68,0,0,0,.62-.62,1.79,1.79,0,0,0,0-1.72A1.81,1.81,0,0,0,112.36,67.49Z"/><path class="cls-2" d="M199.51,67.49a1.72,1.72,0,0,0-.85-.23,1.65,1.65,0,0,0-.83.23,1.68,1.68,0,0,0-.62.62A1.71,1.71,0,0,0,197,69a1.67,1.67,0,0,0,1.67,1.68,1.72,1.72,0,0,0,.86-.22,1.65,1.65,0,0,0,.61-.62,1.79,1.79,0,0,0,0-1.72A1.73,1.73,0,0,0,199.51,67.49Z"/><path class="cls-2" d="M204.65,68.4a.67.67,0,0,0,.11-.37.66.66,0,0,0-.11-.36.53.53,0,0,0-.28-.23,1.64,1.64,0,0,0-.58-.07h-.7v1.34h.68a1.52,1.52,0,0,0,.59-.08A.62.62,0,0,0,204.65,68.4Z"/><polygon class="cls-2" points="122.71 69.26 124.06 69.26 123.39 67.82 122.71 69.26"/><path class="cls-2" d="M106.27,67.48a4.55,4.55,0,0,0-1.23-.11h-.28v3.2h.46a4.2,4.2,0,0,0,1.14-.1,1.29,1.29,0,0,0,.7-.53,1.61,1.61,0,0,0,.26-.92,1.66,1.66,0,0,0-.28-1A1.38,1.38,0,0,0,106.27,67.48Z"/><path class="cls-2" d="M164.67,67.49a1.72,1.72,0,0,0-.85-.23,1.65,1.65,0,0,0-.83.23,1.68,1.68,0,0,0-.62.62,1.71,1.71,0,0,0-.22.87,1.67,1.67,0,0,0,1.67,1.68,1.72,1.72,0,0,0,.86-.22,1.65,1.65,0,0,0,.61-.62,1.79,1.79,0,0,0,0-1.72A1.73,1.73,0,0,0,164.67,67.49Z"/><polygon class="cls-2" points="149.37 69.26 150.72 69.26 150.05 67.82 149.37 69.26"/><path class="cls-2" d="M141.53,68.4a.6.6,0,0,0,.11-.37.59.59,0,0,0-.11-.36.53.53,0,0,0-.28-.23,1.64,1.64,0,0,0-.58-.07H140v1.34h.68a1.52,1.52,0,0,0,.59-.08A.62.62,0,0,0,141.53,68.4Z"/><polygon class="cls-2" points="210.38 69.26 211.74 69.26 211.06 67.82 210.38 69.26"/><polygon class="cls-2" points="180.22 69.26 181.57 69.26 180.9 67.82 180.22 69.26"/><path class="cls-2" d="M146,68.4a.66.66,0,0,0,.1-.37.65.65,0,0,0-.1-.36.59.59,0,0,0-.29-.23,1.6,1.6,0,0,0-.58-.07h-.7v1.34h.68a1.48,1.48,0,0,0,.59-.08A.6.6,0,0,0,146,68.4Z"/><polygon class="cls-2" points="94.88 69.26 96.23 69.26 95.56 67.82 94.88 69.26"/><path class="cls-2" d="M231.15,67.48a4.55,4.55,0,0,0-1.23-.11h-.28v3.2h.46a4.2,4.2,0,0,0,1.14-.1,1.31,1.31,0,0,0,.71-.53,1.6,1.6,0,0,0,.25-.92,1.66,1.66,0,0,0-.28-1A1.38,1.38,0,0,0,231.15,67.48Z"/><path class="cls-2" d="M239.6,67.49a1.72,1.72,0,0,0-.85-.23,1.65,1.65,0,0,0-.83.23,1.68,1.68,0,0,0-.62.62,1.71,1.71,0,0,0-.22.87,1.67,1.67,0,0,0,1.67,1.68,1.72,1.72,0,0,0,.86-.22,1.65,1.65,0,0,0,.61-.62,1.79,1.79,0,0,0,0-1.72A1.73,1.73,0,0,0,239.6,67.49Z"/><path class="cls-2" d="M246.47,63.41H76.2a3,3,0,0,0-3,3V70a3,3,0,0,0,3,3H246.47a3,3,0,0,0,3-3V66.38A3,3,0,0,0,246.47,63.41ZM79.31,71H77.39V67h.4v3.58h1.52ZM83,71H81.05V67h.4v3.58H83Zm4-3.58H85.11v1.24H87V69H85.11v1.56H87V71H84.72V67H87ZM91.91,71h-.09l-2.62-3v3h-.41V67h.09l2.64,3V67h.39ZM97,71l-.63-1.31H94.69L94.08,71h-.45l1.88-4h.09l1.86,4Zm5.27,0h-.09l-2.62-3v3h-.41V67h.09l2.64,3V67h.39Zm5.16-.89a1.6,1.6,0,0,1-.67.67,2.52,2.52,0,0,1-1.15.22h-1.26V67h.82a4.36,4.36,0,0,1,1.29.14,1.78,1.78,0,0,1,.91.7,2.18,2.18,0,0,1,.32,1.19A2.1,2.1,0,0,1,107.46,70.06Zm5.54.38a2,2,0,0,1-1.48.61,2.05,2.05,0,0,1-1.49-.61,2,2,0,0,1-.61-1.46,2.15,2.15,0,0,1,.28-1.06,2.08,2.08,0,0,1,.76-.77,2,2,0,0,1,1-.27,2.07,2.07,0,0,1,1.51.6,2,2,0,0,1,.61,1.48A2,2,0,0,1,113,70.44Zm7.08.51h-1.93V67h.4v3.58h1.53Zm4.78,0-.63-1.31h-1.7L121.91,71h-.45l1.88-4h.1l1.85,4Zm6.57-3.58h-.88V71h-.41V67.37h-.88V67h2.17Zm2,3.58h-.4V67h.4Zm4.29-3.58h-1.88v1.24h1.87V69h-1.87v1.56h1.87V71h-2.26V67h2.27ZM141.62,71l-1.43-1.85H140V71h-.4V67h.79a5.65,5.65,0,0,1,.9,0,1.06,1.06,0,0,1,.57.35,1,1,0,0,1,.22.65,1.05,1.05,0,0,1-.15.57.89.89,0,0,1-.44.37,1.86,1.86,0,0,1-.78.13L142.11,71Zm4.46,0-1.43-1.85h-.22V71H144V67h.79a5.65,5.65,0,0,1,.9,0,1,1,0,0,1,.57.35,1,1,0,0,1,.23.65,1.06,1.06,0,0,1-.16.57.87.87,0,0,1-.43.37,1.88,1.88,0,0,1-.79.13L146.57,71Zm5.44,0-.63-1.31h-1.71L148.57,71h-.45L150,67h.1L152,71Zm5.52-.76a1.85,1.85,0,0,0,2.65-.17l.32.24a2.1,2.1,0,0,1-.74.58,2.31,2.31,0,0,1-1,.21,2.08,2.08,0,0,1-1.65-.7,2.11,2.11,0,0,1-.5-1.41,2,2,0,0,1,.61-1.47,2.14,2.14,0,0,1,1.53-.59,2.16,2.16,0,0,1,1,.22,1.92,1.92,0,0,1,.74.61l-.32.24a1.7,1.7,0,0,0-.62-.51,1.86,1.86,0,0,0-.79-.17,1.68,1.68,0,0,0-.88.23,1.61,1.61,0,0,0-.63.61,1.67,1.67,0,0,0-.22.86A1.64,1.64,0,0,0,157,70.19Zm8.27.25a2,2,0,0,1-1.47.61,2,2,0,0,1-1.49-.61,2,2,0,0,1-.61-1.46,2.05,2.05,0,0,1,.28-1.06,2,2,0,0,1,.75-.77,2.16,2.16,0,0,1,2.54.33,2,2,0,0,1,.61,1.48A2,2,0,0,1,165.31,70.44ZM171,71h-.09l-2.62-3v3h-.41V67h.09l2.64,3V67H171Zm6.64,0h-1.93V67h.4v3.58h1.53Zm4.78,0-.62-1.31H180L179.42,71H179l1.87-4h.1l1.85,4Zm8.31-.45a1.92,1.92,0,0,1-1.45.55,2.18,2.18,0,0,1-1.74-.75,2.09,2.09,0,0,1-.21-2.39,2,2,0,0,1,.78-.76,2.28,2.28,0,0,1,1.11-.27,2.47,2.47,0,0,1,1,.18,2.88,2.88,0,0,1,.87.58l-.31.3a2.28,2.28,0,0,0-.72-.5,2,2,0,0,0-.77-.17,1.87,1.87,0,0,0-.89.23,1.71,1.71,0,0,0-.66.62,1.62,1.62,0,0,0,0,1.68,1.72,1.72,0,0,0,.67.64,1.93,1.93,0,0,0,.92.23,1.59,1.59,0,0,0,1-.35,1.36,1.36,0,0,0,.5-.89h-1.26V69h1.71A2,2,0,0,1,190.68,70.5ZM195,71h-1.93V67h.4v3.58H195Zm5.13-.51a2,2,0,0,1-1.47.61,2,2,0,0,1-1.49-.61,2,2,0,0,1-.61-1.46,2.05,2.05,0,0,1,.28-1.06,2,2,0,0,1,.75-.77,2.16,2.16,0,0,1,2.54.33,2,2,0,0,1,.61,1.48A2,2,0,0,1,200.15,70.44Zm4.59.51-1.43-1.85h-.22V71h-.4V67h.79a5.4,5.4,0,0,1,.89,0,1.05,1.05,0,0,1,.58.35,1,1,0,0,1,.22.65,1.05,1.05,0,0,1-.15.57.89.89,0,0,1-.44.37,1.86,1.86,0,0,1-.78.13L205.23,71Zm2.73,0h-.4V67h.4Zm5.06,0-.62-1.31H210.2L209.58,71h-.44L211,67h.1L213,71Zm7.88-.89a1.6,1.6,0,0,1-.67.67,2.52,2.52,0,0,1-1.15.22h-1.26V67h.82a4.41,4.41,0,0,1,1.29.14,1.71,1.71,0,0,1,.9.7,2.28,2.28,0,0,1,.07,2.24Zm4.42-2.69H223v1.24h1.86V69H223v1.56h1.86V71h-2.26V67h2.28Zm7.52,2.69a1.72,1.72,0,0,1-.67.67,2.6,2.6,0,0,1-1.16.22h-1.26V67h.82a4.44,4.44,0,0,1,1.3.14,1.79,1.79,0,0,1,.9.7,2.35,2.35,0,0,1,.07,2.24Zm2.47.89h-.39V67h.39Zm5.42-.51a2,2,0,0,1-1.47.61,2,2,0,0,1-1.49-.61,2,2,0,0,1-.61-1.46,2.14,2.14,0,0,1,.27-1.06,2.08,2.08,0,0,1,.76-.77,2.16,2.16,0,0,1,2.54.33,2,2,0,0,1,.61,1.48A2,2,0,0,1,240.24,70.44Zm4.1.29a1.11,1.11,0,0,1-.8.32,1.14,1.14,0,0,1-.65-.2,1.68,1.68,0,0,1-.54-.64l.33-.21c.24.44.51.66.83.66a.81.81,0,0,0,.37-.09.73.73,0,0,0,.27-.25.68.68,0,0,0,.09-.33.69.69,0,0,0-.14-.4,3.33,3.33,0,0,0-.68-.63,3.41,3.41,0,0,1-.61-.54,1,1,0,0,1-.21-.61.94.94,0,0,1,.12-.47.82.82,0,0,1,.35-.34,1,1,0,0,1,.49-.12,1,1,0,0,1,.52.14,1.65,1.65,0,0,1,.52.51l-.32.24a2,2,0,0,0-.38-.39.7.7,0,0,0-.35-.09.56.56,0,0,0-.39.14.49.49,0,0,0-.15.36.53.53,0,0,0,.05.25,1,1,0,0,0,.2.27q.08.07.51.39a3.11,3.11,0,0,1,.71.68,1.17,1.17,0,0,1,.19.6A1,1,0,0,1,244.34,70.73Z"/><path class="cls-2" d="M219.22,67.48a4.55,4.55,0,0,0-1.23-.11h-.28v3.2h.46a4.2,4.2,0,0,0,1.14-.1,1.29,1.29,0,0,0,.7-.53,1.61,1.61,0,0,0,.26-.92,1.66,1.66,0,0,0-.28-1A1.38,1.38,0,0,0,219.22,67.48Z"/><path class="cls-2" d="M207.24,56.39H208l1,2.82,1-2.82h.78l-1.43,4h-.73Z"/><path class="cls-2" d="M212.52,56.39h2.16v.74h-1.41v.72h1.41v.72h-1.41v1h1.41v.75h-2.16Z"/><path class="cls-2" d="M216.5,56.39h.73L218.92,59V56.39h.76v4H219l-1.69-2.61v2.61h-.76Z"/><path class="cls-2" d="M221.7,56.39h2.16v.74h-1.41v.72h1.41v.72h-1.41v1h1.41v.75H221.7Z"/><path class="cls-2" d="M225.47,56.39h2.4l-1.41,3.24h1.32v.73h-2.43l1.41-3.22h-1.29Z"/><path class="cls-2" d="M229.53,56.39h.75V59a1.26,1.26,0,0,0,.06.47.41.41,0,0,0,.19.22.58.58,0,0,0,.33.09.57.57,0,0,0,.34-.1.45.45,0,0,0,.2-.23,1.65,1.65,0,0,0,0-.54V56.39h.76v2.36a3.26,3.26,0,0,1-.07.84,1.16,1.16,0,0,1-.25.44,1.21,1.21,0,0,1-.44.32,1.5,1.5,0,0,1-.58.11,1.4,1.4,0,0,1-.75-.2,1.16,1.16,0,0,1-.46-.5,2.68,2.68,0,0,1-.13-1Z"/><path class="cls-2" d="M234.2,56.39h2.17v.74H235v.72h1.42v.72H235v1h1.42v.75H234.2Z"/><path class="cls-2" d="M238.18,56.39h.76v3.25H240v.72h-1.86Z"/><path class="cls-2" d="M242.93,56.39h.77l1.53,4h-.79l-.31-.82h-1.62l-.32.82h-.79Zm.39,1-.53,1.36h1.06Z"/><path class="cls-1" d="M26.8,36.91c-.08.56-.79,1.06-.68,1.4s.94.44,1.56.75a3.29,3.29,0,0,0,2.05.06c.44-.13,1.44.94,1.75,1,.14,0,.24.25.31.48a.69.69,0,0,1,.25-.17c.47-.2.83-.8,1.47-.88s.75-.56,1.31-.6a3.58,3.58,0,0,1,1.83.16c.47.23.74.58,1.31.62l2.31,1.56v.14L43,40.1c.34.5.39.77.7.85s.08.12.6.2a3.62,3.62,0,0,1,.79.2l.64,0,.68.16.79.24,1,.44a1.34,1.34,0,0,0,.67.28,1.17,1.17,0,0,1,.68.36,2.79,2.79,0,0,1,.2.52c0,.2,0,.4.2.48s.4.4.68.2.31-.24.51-.12a2.58,2.58,0,0,0,1.12.6,7.05,7.05,0,0,1,1.39.6c.28.08.2.12.52.2s0-.12.47.12.44.48.92.51.56,0,.76.12.16.29.44.32.83,0,.79.24-.4.16-.4.56.12.64-.08.92-.71.28-.87.68,0,.52-.28,1.2a6.07,6.07,0,0,1-1,1.72c-.39.52-.39.6-1.07.8a6.2,6.2,0,0,0-1.79.48c-.56.36-1.55.48-1.75.84s-1.16,1.64-1.16,1.64a19.72,19.72,0,0,1-2,2c-.48.28-1.23.64-1.39,1s0,.43-.36.64-1.27.23-1.71.48a8.86,8.86,0,0,0-1.12.79l-1.11.84a2.27,2.27,0,0,0-.76.68c-.24.4-.59.16-1,.72-.21.32-.31,1.25-.72.48-.17-.32-.36-.44-.2-.68s.64-.32.44-.56a.85.85,0,0,1-.32-.68c0-.44-.08-.36-.32-.72a1.47,1.47,0,0,1-.27-1c0-.39-.36-1.51-.16-1.75s.28-.24.2-.64a4.09,4.09,0,0,1,0-1.56,5,5,0,0,0,0-1.24l-.08-.76a.66.66,0,0,0,0-.6c-.2-.24-.52-.68-.52-.68s0-.48-.64-.68-.68-.16-.87-.4-.08-.48-.64-.48-.24.24-1-.08a6.21,6.21,0,0,1-1.39-.92c-.56-.4-.84-.08-1.07-.52s-.68-2-1.28-2a2.67,2.67,0,0,1-1-.2,1.12,1.12,0,0,1-.2-.75c.08-.36.16-.4.24-.76a3.9,3.9,0,0,1,.35-.84,1.27,1.27,0,0,0,.8-.6,4.1,4.1,0,0,0,.52-1.28c0-.4,0-1.52,0-1.52v-.06a2.2,2.2,0,0,1-.74-.59c-.31-.44-.31-.38-.56-.75s-1-.32-1.56-.25a11.74,11.74,0,0,1-2-.38c-.56-.06-1.12-.25-1.24-.56a1.72,1.72,0,0,0-.33-.38C25.71,37.74,26.26,37.32,26.8,36.91Z"/><path class="cls-1" d="M37.12,8.45a27.48,27.48,0,0,1,13.14,3.34c.2.28.28.48.17.54a10.41,10.41,0,0,0-1.06.76c-.38.25-.88.12-1.31-.38a4,4,0,0,0-1.37-1.06,3.73,3.73,0,0,1-1.12-.82,11.84,11.84,0,0,0-1.69-1.06,13.79,13.79,0,0,0-2.3-.88,17.42,17.42,0,0,0-3.06-.25c-1,.07-.56.44-.31.75s.62.25,1.31.5.5,0,1.12.13.69.5.94.88,0,.62-.44,1-.68.06-1.06-.19.94-.56.81-1.13-.68-.19-1.56-.19-.68-.37-1-.37-.94-.69-1.5-1-.93-.06-1.5-.13-1.68.5-2,.5-.75.63-1,1.32.31.5-.06.94-.87.43-1.18.68a2.73,2.73,0,0,0-.75,1.82c0,.75.37.56.87,1.19s1.12.56,1.87.69.69.44.81,1.06.25.63,1.12.82a2.88,2.88,0,0,0,.49.06l-3.9,2.21-6.29-3.87a7.09,7.09,0,0,0-1.38.48A8.73,8.73,0,0,0,20.51,19a5.84,5.84,0,0,0-1.38,1.7l5.19,4.17a51.05,51.05,0,0,0-7.21,5.88c-.61.58-1.2,1.17-1.75,1.76-.24-.32-.54-.55-.77-.92s-.06-1.75-.19-2.32-.62-.68-1-.75-.32-.31-.25-.87,0-.63.06-1.38,1.06-2.06,1.31-2.69A18.81,18.81,0,0,1,16,21.41a24,24,0,0,1,1.93-2.63c.31-.25.07-1.31.07-1.63s-.39-.33-.55-.36A27.43,27.43,0,0,1,37.12,8.45Z"/><polygon class="cls-2" points="40.86 26.57 48.48 21.49 48.48 19.27 39.12 25.18 40.86 26.57"/><polygon class="cls-2" points="41.05 39.84 48.82 36.06 48.83 33.93 41.05 37.71 41.05 39.84"/><polygon class="cls-2" points="32.72 41.18 32.72 41.15 32.72 41.15 32.72 41.18"/><polygon class="cls-2" points="30.08 43.45 30.08 43.45 30.07 43.45 30.08 43.45"/><path class="cls-2" d="M30.78,46.39c0,.13.06-.08.06-.08l-.05,0Z"/><path class="cls-2" d="M34.85,49.68l.25-.09,0,0Z"/><path class="cls-2" d="M37.81,61.23h0l0,.07Z"/><path class="cls-2" d="M57.23,49.26c0-.07.05-.12,0,0Z"/><polygon class="cls-2" points="48.98 41.42 48.99 41.43 48.98 41.42 48.98 41.42"/><path class="cls-2" d="M44.46,40.06l.1.07h0s-.09-.06-.1-.08Z"/><path class="cls-2" d="M44.21,39.93h0l-.08,0Z"/><path class="cls-2" d="M38.9,14.15c-.69.38-1,.44-1.12,1s.12.13-.5,1.07a2.11,2.11,0,0,0-.38,1L40.72,15c-.47-.15-.89-.31-.89-.31S39.58,13.77,38.9,14.15Z"/><path class="cls-2" d="M36.58,0A36.59,36.59,0,1,0,73.17,36.58,36.62,36.62,0,0,0,36.58,0Zm-26,51.05a29.59,29.59,0,0,1-1.42-2.88c.16-2.55,1.52-6.56,4.94-11.21l0,0h0l.26-.34,0,0,0,0,0,0,0,0h0l.23-.3,0,0,0,0,0,0,0,0,0,0,0,0,0,0,0,0,.19-.25,0,0,0,0,.13-.15h0l0,0h0a3.11,3.11,0,0,1,.23-.28h0l0,0,0,0,.49-.57,0,0,0,0h0l.24-.28h0l0,0,0,0,0,0,0,0,0,0h0l.24-.26h0l0,0,.17-.19,0,0,0,0,.18-.19h0l.25-.26,0,0,.15-.16,0,0h0l.32-.33h0v0h0l.13-.14h0a56.9,56.9,0,0,1,4.39-4l.05-.05.06,0,.06-.05h0v0h0l.32-.26h0l.33-.26.29-.23.06,0h0l.38-.3h0l.17-.13h0l.59-.45h0l0,0,0,0h0l.7-.51h0c.25-.19.51-.37.77-.55l-.35-.27-5.46-4.19a4.86,4.86,0,0,1,.42-.59l.18-.2h0a5.41,5.41,0,0,1,.89-.77l0,0a5.29,5.29,0,0,1,.5-.32l0,0h0l0,0,.05,0,0,0h0l0,0,.05,0,0,0h0l0,0h0l.14-.07h0l.05,0h0l.05,0,.13-.06h.06l0,0,.05,0h.1l.05,0h.09a5.65,5.65,0,0,1,.84-.2l6,3.63.39.23,10-5.71,5.69,2.75-.2.12-1.16.7-2.06,1.24L42,21.91l-.84.51-4.55,2.73.64.46,5.17,3.68,5,3.59-1.4.63-4.14,1.86L40.44,36l-9.23-7.18-.16-.13-.13-.1A53.38,53.38,0,0,0,17.11,38.94H17l-.21.23h-.06C13.22,43.12,10.64,47.28,10.61,51.05Zm26,15.23A29.6,29.6,0,0,1,17.21,59.1l.46.18a26.8,26.8,0,0,0,4.71.87l.29,0A27.68,27.68,0,0,1,20.1,58.5c-9-1.89-7.4-9,.3-17.25,3-3.22,7.52-6.35,10.46-8.41L40.3,40.2l.13-3.06,8.41-4-.49-.35h0l0,0L37.92,25.17l10.56-6.4-7.12-3.44-9.91,5.61L25.06,17a8,8,0,0,0-4.92,3.58l-.05,0,0,0,.67.52,4.69,3.77C15.54,31.36,9.63,39.66,8.62,46.63a29.7,29.7,0,1,1,28,19.65Z"/></g></g></svg>